<svg width="44" height="44" viewBox="0 0 44 44" fill="none" xmlns="http://www.w3.org/2000/svg">
<path d="M11.1425 16.9974C12.5399 16.3564 14.2116 17.0262 14.8115 18.3885C16.8814 23.0883 19.2881 25.7003 23.7035 28.0537C25.1758 28.8385 25.726 30.6306 24.7879 31.948C24.0212 33.0248 22.5138 33.4011 21.3382 32.7147C15.3895 29.2417 11.9024 24.3175 9.91772 19.9754C9.39564 18.8332 9.96425 17.5378 11.1425 16.9974Z" fill="black"/>
<path d="M16.0736 5.46288C17.54 5.45714 18.655 6.67732 18.555 8.05897C18.3977 10.2332 18.5652 11.8019 19.0161 13.7464C19.2638 14.8145 18.7034 15.8993 17.8129 16.598C16.6126 17.5398 15.6956 18.7398 14.9667 19.7728C13.9566 21.2046 10.4801 21.1017 9.71131 19.5419C8.13128 16.3362 7.0605 10.4303 9.3678 6.44015C9.73022 5.81339 10.46 5.48483 11.2161 5.48187L16.0736 5.46288Z" fill="black"/>
<path d="M38.3329 29.1846C38.5153 27.8105 37.3668 26.6184 35.9024 26.546C33.5979 26.432 31.9691 26.0863 29.9794 25.4297C28.8864 25.069 27.6787 25.464 26.8371 26.2149C25.7028 27.227 24.3311 27.9424 23.1575 28.5015C21.531 29.2764 21.221 32.5481 22.7682 33.4565C25.9479 35.3234 32.0273 37.0375 36.4992 35.3542C37.2016 35.0898 37.6348 34.4451 37.7288 33.7365L38.3329 29.1846Z" fill="black"/>
</svg>
