<svg width="34" height="34" viewBox="0 0 34 34" fill="none" xmlns="http://www.w3.org/2000/svg">
<path d="M8.57115 13.476C9.64568 12.9832 10.9312 13.4982 11.3925 14.5458C12.9841 18.1597 14.8348 20.1683 18.2301 21.978C19.3623 22.5814 19.7853 23.9595 19.064 24.9726C18.4744 25.8006 17.3153 26.0899 16.4113 25.5622C11.837 22.8916 9.15548 19.105 7.62934 15.766C7.22788 14.8877 7.66512 13.8916 8.57115 13.476Z" fill="white"/>
<path d="M12.363 4.60719C13.4906 4.60278 14.348 5.54105 14.2711 6.60349C14.1501 8.27542 14.2789 9.48168 14.6257 10.9769C14.8162 11.7982 14.3852 12.6324 13.7004 13.1697C12.7774 13.8939 12.0723 14.8166 11.5118 15.611C10.7351 16.712 8.0618 16.6329 7.47061 15.4335C6.25562 12.9684 5.43223 8.42697 7.20646 5.35868C7.48515 4.87672 8.04629 4.62407 8.62775 4.6218L12.363 4.60719Z" fill="white"/>
<path d="M29.4793 22.8484C29.6195 21.7917 28.7364 20.8751 27.6103 20.8194C25.8383 20.7317 24.5858 20.4659 23.0557 19.961C22.2153 19.6836 21.2866 19.9873 20.6394 20.5647C19.7672 21.343 18.7124 21.8932 17.81 22.3231C16.5592 22.9189 16.3209 25.4348 17.5106 26.1333C19.9557 27.5689 24.6305 28.887 28.0692 27.5925C28.6094 27.3892 28.9424 26.8935 29.0148 26.3486L29.4793 22.8484Z" fill="white"/>
</svg>
